<svg version="1" xmlns="http://www.w3.org/2000/svg" width="637.333" height="637.333" viewBox="0 0 478.000000 478.000000"><path d="M234 13.6c-4.2 2.9-17 7.9-35.5 13.7C171.2 36 161 43 161 53.1v3.7l-3.5-1.8c-4.5-2.3-10.4-1.8-17.3 1.6-6.5 3.2-12.4 7.8-28.1 22.2-12.5 11.4-22.9 19.4-26.6 20.6-1.8.5-2 1.5-2 7.8-.1 4-.4 9.2-.8 11.5-.7 4-1.4 6.9-5.8 26.8-1.1 4.9-2.3 13.6-2.6 19.2-.7 12.2.9 17.6 6.3 22.1l3.4 2.8-2.9 1.7c-5.1 3-6.6 7.8-6.5 20.2 0 9.2.8 14.2 4.3 30 2.8 12.1 4.5 22.2 4.7 27.9l.3 8.8 3.9 1.9c4.4 2.2 14.8 10.5 23.7 19 24 22.8 36.8 29.4 46.5 24.4l3-1.6v3.1c0 10.8 11.2 17.9 44 28 14.2 4.4 25.8 9 29.8 11.9 2.5 1.7 2.9 1.8 4.7.4 4.6-3.4 13.3-6.8 39.9-15.3 24.2-7.7 34.6-15.2 34.6-25 0-3.5-.2-3.4 3.9-1.4 9 4.5 21.8-2.3 44.5-23.8 10.3-9.6 20.5-17.8 25.1-20l4-2 .1-7.6c.1-9.2.3-10.3 4.9-30.7 6.4-27.9 5.6-43.7-2.5-48.3-1.6-.9-3-1.9-3-2.2.1-.3 1.5-1.4 3.3-2.5 7-4.4 8.4-20.3 3.6-41-5.1-22.2-6.7-31.4-6.5-38.2l.1-7.1-4-2c-5.1-2.5-13.5-9-22.9-17.8-12-11.3-14.8-13.8-20.6-18.1-11.2-8.3-20-11-26.1-7.9-4.1 2-3.9 2.1-3.9-1.1 0-3.4-4-10.2-7.7-12.9-6.9-5.1-16.7-9.1-38.8-15.9-13.4-4.2-25-8.9-28-11.6-1.9-1.6-2.2-1.6-5.5.7zm18.5 26.9c32.6 3 65.2 18.4 89.6 42.5 45 44.5 56.9 113.1 29.6 171-15.7 33.3-47.5 62.5-82.6 75.7-7.8 2.9-24.4 7-32.6 8-7.9 1-30.3 1-38.4 0-46.1-5.7-89.1-35.5-111.5-77.1-6.8-12.6-12.8-29-15.1-41.6-.3-1.4-.7-3.6-1-5-1.8-8.9-2.4-27.4-1.2-39.5 4.7-49.9 35.8-95.6 80.4-118.2 13.7-7 26.5-11.5 38.8-13.7 1.7-.3 4.1-.8 5.5-1.1 1.4-.3 6.1-.8 10.5-1.2 4.4-.3 8.1-.6 8.2-.7.4-.3 12.7.2 19.8.9z"/><path d="M226.6 52.4c.3.9 1.3 1.6 2.1 1.6 2.3 0 1.2 4.4-1.3 4.8-1.6.2-2-.2-2-1.9.1-3-4.6-5.9-7-4.4-1.7 1.1-1.6 3.3.1 2.6 2.2-.9 4.8-.5 5.3.7.2.8-.5 1.6-1.7 1.9-1.2.3-2.1 1.2-2.1 2 0 1 .7 1.4 2 1 2.6-.7 3.4.7 1.4 2.7-2 2.1-3 2-5.4-.4-2.5-2.5-3.4-2.6-2 0 1.3 2.4 5.9 4.8 8.2 4.3 1.8-.4 3.3-3.7 2.4-5.1-.3-.5.5-.7 1.9-.4 1.5.2 2.5 1.2 2.7 2.5.2 1.1.9 2.2 1.6 2.5 1.1.3 1.2-.9.7-6.2l-.7-6.6h3.1c2.6 0 3.1.4 3.1 2.4 0 1.3-.5 2.6-1.1 2.8-1.6.5 1.1 4.8 2.9 4.8.7 0 1-.5.7-1-.4-.6.7-1 2.5-1s2.9.4 2.5 1c-.3.5-.1 1.9.6 3.1.8 1.5.8 1.9 0 1.5-1.8-1.1-5.1.4-5.1 2.3 0 2.6 3.4 5.3 6.2 4.9 3-.4 2-2.3-1.2-2.3-1.6 0-2.5-.6-2.5-1.5 0-.8.8-1.4 1.7-1.4 2.4.2 3.5-3.5 3.7-11.7.1-4-.6-3.8 9.5-2.5 1.1.2 2.2.9 2.4 1.5.3 1-.4 1.1-2.6.7-2.1-.5-3.4-.2-4.6.9-2 2-2 2.6-.1 7.2 1.7 4 3.1 4.1 1.6.1-1.1-3 .1-5.3 2.9-5.4 1.8-.1 2 .4 1.8 3.7-.1 2.2.3 4.4.9 5 1.3 1.3 1.8-.1 2.8-7.4.8-5.7.8-5.7 13.7-1.7 8.4 2.6 9.5 3.3 9.1 5-.5 1.9-.6 1.9-2.3-.3-2.3-2.9-6.2-3.2-7.8-.7-1 1.7-.9 2.6.3 5 1.5 2.8 2.4 3.4 5.1 3.1.7-.1 1.5 1.1 1.8 2.5.9 3.3 1.7 2.4 4.1-4.1 2.2-6.2 1.8-5.7 4.9-4.9 3.2.8 3.3 1.9.2 4.7-1.9 1.8-2.2 2.7-1.5 4.6.6 1.5 1.4 2.1 2.4 1.7 2.6-.9 4.7.5 4.1 2.8-.3 1.2-.2 2.7.3 3.4.5.9 1.8-.6 4-4.7 2.9-5.5 3.4-5.9 5.1-4.8 2.6 1.6 2.5 2.1-.9 7-1.8 2.7-2.6 4.9-2.2 6 .5 1.5 1.2 1 3.9-2.8 1.8-2.5 3.2-5 3.2-5.5 0-.6.4-1 1-1 1.6 0 8.9 5.4 9 6.7 0 2.3-2.1 2.4-5.4.3-3.4-2.1-3.4-2.1-4.1 0-.8 2.6.1 3.9 2.4 3.3 2.6-.7 3.5 1.2 1.7 3.9-.9 1.4-1.2 2.9-.7 3.6.6 1 1.9-.1 4.7-3.7 4.3-5.7 3.9-5.5 6.5-4.1 3.1 1.7 4.3.1 1.6-2.3-10.8-10-29-20.6-44.7-26.1-14.9-5.1-23.6-6.7-41.3-7.3-15.3-.5-16.7-.4-16.1 1.1zm20.4 4c0 1.5-.7 2.6-1.9 2.9-2.5.6-3.1 0-3.1-3 0-1.8.5-2.3 2.5-2.3s2.5.5 2.5 2.4zm37.5 10.3c1.6 1.6 1.6 1.7-.5 2.5-1.3.5-3 .3-4.3-.3-2-1.1-2-1.2-.2-2.5 2.4-1.8 3-1.8 5 .3zM303 71c0 1.8-2.7 4-4.3 3.4-2-.7-2.1-1.7-.7-4.5.9-1.6 1.4-1.7 3-.6 1.1.6 2 1.4 2 1.7zM184.7 52.7c-1.4 1.4-.6 2.3 2.1 2.3 1.5 0 3.5.7 4.6 1.5 1.7 1.3 1.5 1.6-3.9 4-7.1 3.1-7.6 3.1-10.5 0-1.4-1.5-3.3-2.5-4.5-2.3-2.2.3-1.8 2.4.4 2.1.8-.1 2.4.5 3.5 1.3 1.9 1.3 1.7 1.4-2.7.8-2.8-.4-4.7-.3-4.7.3 0 1.7 1.2 2.2 3.4 1.4 1.1-.5 2.9-.5 3.8-.2 1.4.5.7 1.2-3 3.1-11.7 6-23.2 14.8-34 25.8-8.4 8.7-10.2 11.2-7.5 11.2 1-.1 3.4-2.1 5.3-4.5 4.1-5.3 6.3-6.5 5.8-3.2-.2 1.2-.9 2.2-1.7 2.2-2 0-5.3 4.8-4.6 6.7.8 1.9 4.3 3.6 7.2 3.3 3.2-.2 4.1-1.5 1.1-1.5-3.4 0-5.6-2.6-4.1-4.8.7-1.2 2.4-1.7 5.2-1.7 2.8 0 4.7-.6 5.5-1.7.8-1.1 2.1-1.4 4.1-1.1l3 .6-2-2.3c-1.1-1.3-3.2-3.7-4.8-5.3-2.6-2.9-2.7-3.1-1-5 1.7-1.8 1.9-1.8 5.8 2.7 2.2 2.5 4.8 4.6 5.8 4.6 1.5 0 1.1-1-2.2-5.1-2.3-2.9-4.1-5.4-4.1-5.8 0-.3 1-1.2 2.1-2 1.7-1 2.3-1 2.9 0 .5.7.6 1.8.3 2.5-.5 1.4 2.6 3.3 4.5 2.7 1.7-.7 1.5-2.1-.8-5-2.4-3.1-2.5-3.9-.6-4.6 1-.4 2.7 1.2 5 4.4 2 2.7 4.3 4.9 5.1 4.9 2 0 2-.1-2-6-1.9-2.9-3.5-5.5-3.5-5.9 0-.7 8.5-5.1 9.9-5.1.5 0 1.1.7 1.5 1.5.3 1-.6 2-2.9 3.1-3.8 1.8-4.1 2.4-2.3 4.2 1.8 1.8 3.5 1.5 4.1-.8.7-2.8 3.1-2.5 4.5.5.7 1.6 1.7 2.3 2.6 1.9 1.3-.5 1-1.6-1.4-6.5l-3-5.8 4.6-2.1c5.6-2.4 7.4-2.5 7.4-.4 0 1.1-.6 1.3-1.9.9-2.3-.7-5.3 2-4.9 4.3.2.9 1.5 2.3 3 3.2 2.3 1.2 3.1 1.3 4.7.3 1.3-.8 2.2-.9 2.6-.3.3.6 1.2 1 2 1 1.1 0 1.2-.6.3-3-.7-2.3-.7-3.4.2-4.5 1.9-2.3 2.8-1.8 3.2 1.7.4 4.1 2.8 5 2.8 1 0-3.8-3.1-6.6-6.4-5.8-1.5.4-2.6.1-2.9-.7-.3-.9 1-1.7 4-2.5 3.6-1 4.3-1.5 3.4-2.6-1-1.2-1.9-1.2-5.6-.1-3.8 1.2-4.5 1.2-5.6-.1-1.1-1.3-6.1-4.4-7.2-4.4-.2 0-.7.3-1 .7zm10.1 15c-.3 1.9-4.8 3.2-4.8 1.4 0-1 2.8-3 4.3-3.1.5 0 .7.8.5 1.7zm-46.6 24c2.9 2.6 1.7 7.3-1.9 7.3-1.1 0-1.1-.5-.2-2.1 1.1-2.1 0-3.8-2.4-3.9-.8 0 1.4-2.9 2.2-3 .3 0 1.3.7 2.3 1.7z"/><path d="M269 61.5c-1.4 1.7-.7 8.2 1.1 9.9.8.8.9.3.4-2.2-.8-4.1.6-6.1 4-5.4 3.3.6 3.3-1.6-.1-2.8-3.4-1.3-3.9-1.3-5.4.5zM154.4 68.1c-.7 1.2 1.5 2.1 3.6 1.4 1-.3 2.9-.1 4 .5 1.2.7 2.4.9 2.7.7.3-.3-.8-1.2-2.5-2.1-2.9-1.5-7-1.8-7.8-.5zM234.2 73.7c-2.7 1.1-4.2 6.2-4.2 14.1 0 6.9-.4 8.8-3 13.7-1.6 3.1-5.7 9.1-9 13.2-8.5 10.5-10.2 14.3-10.8 23.5-.4 6.4-.8 7.8-2.3 8.3-4 1.3-16.7 10.5-22.2 16.1-10.1 10.2-16.7 22.1-20.2 35.9-1.8 7-2.7 22.1-1.8 28.2l.5 3.3h21.9l-2.9-3.8c-3.4-4.2-5.3-9.5-4.8-13.3.1-1.4 1.9-5.4 3.8-9 3-5.5 3.4-6.8 2.5-9.2-1.5-3.7 0-4.9 6.5-5.5 3.6-.3 6.7.1 9.2 1.2 4.7 1.9 4.7 1.9 4 .2-.3-.8.4-2.4 1.5-3.5 2.2-2.2 5.1-2.7 13.8-2.2 1.2 0 4.2 1.7 6.8 3.6l4.6 3.5 1.5-3.5c2-4.9 4.9-7.5 8.2-7.5 3.2 0 5.1 1.7 7.7 7 1 1.9 1.9 3.7 2.1 3.9.2.2 1.7-.9 3.3-2.5 1.7-1.6 4.6-3.4 6.5-4 6.8-2.4 16.6.3 16.6 4.5 0 1.8.2 1.8 4.3.4 4.9-1.7 14.5-1.3 15.7.7.5.8.4 2.2-.1 3.1-1.5 2.8-1.1 4.5 2.3 10 4.4 7 4.8 14 1 19.5-1.4 2.2-3.3 4.4-4.1 5.1-1.3 1 .6 1.2 9.6 1.3 7.4 0 11.4-.4 11.9-1.2.4-.6.7-6.1.7-12.2-.1-21-7.4-38.6-22.3-53.7-7.8-7.8-18.7-15.5-24.7-17.3-1.9-.6-2.1-1.4-2-7.4 0-9-2.6-14.7-10.2-22-8.7-8.4-9.8-10.6-9.3-19.6.4-8.1-1-14.7-3.6-17.5-.9-1-2.2-2.6-2.8-3.7-1.1-1.9-3.9-2.7-6.2-1.7zm3.4 14.5c0 10.6.2 11.8 3.3 19.1 5.9 13.8 5.9 18.8.1 20.8-4.4 1.6-3.8 3.5.9 3.1 5.3-.5 8.6 2.6 7.7 7.1-.7 3.6-3.2 6.6-6.3 7.8-3.5 1.3-2.7 2.4 1.9 2.6 8.4.5 11.9 6 5.3 8.4-4.2 1.5-4.6 3.2-.7 2.8 3.8-.4 4.2 1 .9 3.5-5.1 3.8-24.2 3.1-28.6-1-2.1-1.9-.9-2.6 2.4-1.4 4 1.5 15.7 2.3 17.5 1.1 2.1-1.4 1.3-1.8-6.5-2.5-7-.7-16.1-4.1-19.9-7.4-2.8-2.5-4.6-7.6-4.7-13.1-.2-6.4 3.2-13.4 11-23.1 9.5-11.8 11.3-15.6 12-26.9.7-9.3 1.4-12.1 3-12.1.4 0 .7 5.1.7 11.2zm-1.8 80c3.8 0 8.2-.3 10-.7 4-.8 4.2.8.4 2.4-5.7 2.4-19.2.9-19.2-2.1 0-.5.5-.6 1-.3.6.4 4.1.7 7.8.7zm4.9 6.3c-.5 1.6-5.4 1.8-6 .3-.3-1 .5-1.4 2.9-1.4 1.9 0 3.3.5 3.1 1.1zM327.6 91.4c-.3 1.4-.3 3.2 0 4 .4 1 .1 1.6-.9 1.6-.8 0-1.7-.7-2.1-1.5-1.1-3.1-2.5-1.4-2.3 3 .1 4.2 1.7 6.7 1.7 2.7 0-1.5.8-1.9 3.7-1.9 2.6 0 4.1-.6 5.5-2.3 1.6-2 2.1-2.1 2.8-.9.7 1-.1 2.4-3 5.1-2.2 2.1-4 4.3-4 4.9 0 .8-.4.8-1.4 0-1-.9-1.6-.9-2.1-.1-.4.6.1 1.7 1 2.4 1.7 1.2 1.7 1.3.1 1.9-1.8.7-6.6-3.5-6.6-5.9 0-.7-.4-1.5-.9-1.9-1.6-.9-.2 4.8 1.8 7.5 2.3 3.1 6.8 3.9 7.7 1.3 1.2-3.3 9.7-11.3 11.5-10.8.9.3 1.9-.1 2.2-.9.6-1.6-4.7-7.1-6.1-6.2-.5.3-1.4-.6-2-1.9-1.6-3.4-5.7-3.4-6.6-.1zm4.4 1.5c0 1-.7 2.1-1.5 2.5-1.5.5-2.2-2.4-.8-3.7 1.2-1.3 2.3-.7 2.3 1.2z"/><path d="M303.7 94.7c-.5.7-2.5 4.4-10.2 18.8-13.4 24.9-17.5 33.3-16.3 33.7 1.3.5 2.7-1.8 14.2-23.7 3.2-6.1 7.9-14.7 10.4-19.3 3-5.6 4.1-8.7 3.4-9.4-.5-.5-1.2-.6-1.5-.1zM165.6 97.9c-.5.7 27.1 49.1 29 51 .2.3.8 0 1.3-.5.6-.5-2-5.8-6.5-13.4-6.7-11.4-12.7-21.8-19.4-33.6-2.5-4.4-3.4-5.2-4.4-3.5zM339 106c0 1.4-.7 2-2.4 2-1.9 0-2.3.4-1.9 2 .6 2.2 3.8 2.4 3.8.3 0-.6.4-1.5.8-2 .5-.4 1.4-.8 2-.8.7 0 1.3-.8 1.5-1.8.2-1.2-.3-1.7-1.7-1.7s-2.1.6-2.1 2zM277.4 116.8c-1.2 3.1-3.9 10.1-6 15.5-2.6 6.8-3.5 10-2.7 10.8.7.7 2.9-3.6 7.2-14.6 3.3-8.6 6.1-16.1 6.1-16.6s-.6-.9-1.2-.9c-.7 0-2.3 2.6-3.4 5.8zM188.8 113.5c-.3.3.2 2.3 1.2 4.3.9 2 4.1 9 6.9 15.4 3.5 7.8 5.7 11.5 6.6 11.2.9-.4-.6-4.8-5.5-15.7-6.3-14.2-7.8-16.6-9.2-15.2zM331.5 115.4c-1.9 2.2-31.9 35.2-35.4 38.8-2.4 2.7-3.2 4.1-2.5 4.8.8.8 2.3-.2 4.9-3.2 3.5-3.9 11.1-12.2 29.3-32 3.4-3.7 6.2-7.2 6.2-7.7 0-1.6-1.4-2-2.5-.7zM140.5 116.9c-.4.8.7 2.8 3.1 5.4 2.2 2.2 4.8 5 5.9 6.2 20.9 22.5 30.9 32.5 31.9 31.5.7-.7-.8-2.9-5-7.3-6.7-6.8-19.8-20.7-29.1-30.6-4.2-4.5-6.2-6.1-6.8-5.2zM295.2 137.8c-6.9 9.7-9.7 14.3-9 15 .7.7 4.1-3.3 11-13 6.5-9.1 9.7-14.3 9-15-.6-.6-4.4 3.9-11 13zM168.1 125.9c-.8.5 2.1 5.1 9 14.4 9.4 12.8 12 15.5 11.9 12.4-.1-2.4-19.6-27.6-20.9-26.8zM119 144.1c0 .8 3.6 3.7 8.1 6.4 9.9 6.2 10.1 6.3 24.4 15.5 14.5 9.4 16.5 10.4 17.6 9.3.5-.5-9.2-7.3-22.9-16C120.7 143 119 142 119 144.1zM330.5 158.6c-13.2 8.5-23.9 15.6-23.8 15.9.1.3.3.9.5 1.4.2.4 11.1-6.1 24.3-14.5 13.2-8.5 24.3-15.4 24.8-15.4.4 0 .7-.7.7-1.5s-.6-1.5-1.2-1.4c-.7 0-12.1 7-25.3 15.5zM148.6 144.9c-.5.8 3.6 4.7 18.3 17 5 4.2 7.7 5.8 8.2 5 .4-.8-3.7-4.9-11.3-11.3-13.4-11.3-14.4-12-15.2-10.7zM316.5 151.6c-4.9 4.2-10.8 9.2-13 11-2.7 2.3-3.6 3.7-2.9 4.4 1.1 1.1 25.7-19 26.2-21.5.6-2.6-1.1-1.6-10.3 6.1zM133.5 170c-.7 1.1.2 3 1.4 3 .5 0 7 2.9 14.5 6.5s13.9 6.5 14.1 6.5c1.6 0 .1-3.2-1.7-3.9-2.7-1-20.8-9.5-24.9-11.7-1.8-.9-3-1-3.4-.4zM334.5 172.6c-3.8 1.8-10.7 5-15.3 7.1-4.5 2.1-8.1 4.2-7.9 4.8.2.5 1.1.9 2 .7 1.5-.2 28.7-13 29.6-13.8.3-.2 0-.8-.5-1.3s-3.8.5-7.9 2.5zM104 177.2c0 .8 3.9 2.5 8.8 4 4.8 1.4 17.2 5.3 27.7 8.7 12.1 3.9 19.3 5.7 19.9 5.1.5-.5.8-1.1.5-1.3-.9-.8-54.5-17.7-56-17.7-.5 0-.9.6-.9 1.2zM360.5 178.8c-4.4 1.5-16.4 5.4-26.7 8.6-13 4.1-18.8 6.4-18.8 7.4 0 .9.7 1.2 1.8.9.9-.3 6-1.9 11.2-3.5 5.2-1.7 17.1-5.4 26.4-8.4 9.3-2.9 17.1-5.9 17.4-6.6.6-1.8-2.3-1.4-11.3 1.6zM234.7 186.2c-.8 1.3-2.6 4.4-4.1 7-1.4 2.6-5 7.3-8 10.5-6.8 7.4-8.6 11-7.9 15.4.7 4.6 1.8 6.4 5.6 9.2 4.7 3.4 10 4.7 19.1 4.4 13.1-.4 20.2-4.9 21.3-13.7.7-4.7-1-7.7-8.7-16-3.3-3.6-7-8.5-8.2-11-3.8-8.2-6.6-9.9-9.1-5.8z"/><path d="M257.3 189c-4.1 1.9-7.3 5.2-7.3 7.5 0 .8 2.4 4 5.3 7.1 6.5 6.9 7.6 8.9 7.7 13.5 0 5.4-2.5 10.5-6.7 13.4l-3.8 2.6 4-.6c8.6-1.3 10.1-1.7 14-3.4 5.5-2.5 8.3-5.9 9.3-11.2 1-5.5.5-7.1-5-15.2-3.1-4.6-4.2-7.2-4.2-10-.1-4 0-4-6.8-5-1.5-.2-4.4.4-6.5 1.3zM205.8 188.6c-.5.4-.8 2.3-.8 4.2 0 2.5-1.3 5.4-4.7 10.5-4.2 6-4.8 7.6-4.8 12.1 0 7.9 5.3 13.4 14.8 15.5 7.1 1.6 10.7 2.2 10.7 1.6 0-.3-1.5-1.9-3.4-3.6-8.2-7.1-6.9-16.4 3.7-26.7 5-4.9 5.1-6.5.6-10.8-2.4-2.3-4-2.9-9.2-3.2-3.4-.2-6.5 0-6.9.4z"/><path d="M185.7 192.7c-1.4.4-1.6.8-.6 1.9 1.5 1.9.6 5-3.5 11.7-2.9 4.9-3.2 6.2-2.6 9.6 1.4 8 7.9 13.8 18.2 16.5 7.6 1.9 15 2.7 14.2 1.5-.3-.5-1.2-.9-2.1-.9-3.5 0-11.5-5.5-13.9-9.5-4-6.9-3.2-12.4 3.3-21.6 1.8-2.6 3.3-4.9 3.3-5.2 0-2.3-11.7-5.1-16.3-4zM279.1 193.5c-5.8 1.9-5.9 3.4-1.1 10.3 3.8 5.4 4.3 6.8 4.2 11.1-.2 8.7-4.9 14.4-14.6 17.7-5.8 2-5.9 2.8-.3 1.9 2.3-.4 5.4-.8 6.8-1.1 9.6-1.5 18.3-6.9 21.1-13 2.4-5.5 1.8-9-2.4-15.7-2.9-4.5-3.5-7.1-2.7-10.7.5-1.9-6.2-2.2-11-.5zM125 199.3c0 1 4.3 2.1 15.3 4 17.8 3.1 17.7 3.1 17.7 1.4 0-1-2.8-1.8-8.7-2.7-4.9-.8-9-1.4-9.3-1.5-.3-.1-1.8-.4-3.5-.8-7.6-1.7-11.5-1.8-11.5-.4zM334.5 200.5c-15.3 2.7-17.5 3.3-17.5 4.6 0 1.1 4.8.8 12-.6 1.4-.3 6.9-1.3 12.3-2.2 6.3-1.1 9.7-2.2 9.7-3 0-1.5-1-1.5-16.5 1.2zM100 212c-1.9.4-2.2.8-1.1 1.5 1.7 1 3.4 1.1 24.2 1.9 8.3.4 19.3.9 24.5 1.2 8.1.5 9.4.3 9.4-1s-1.2-1.6-5.7-1.7c-3.2-.1-7.1-.2-8.8-.4-1.6-.1-11.1-.5-20.9-.9-9.9-.4-18.2-.8-18.5-1-.3-.2-1.7 0-3.1.4zM372.7 211.6c-.1.2-8.3.6-18.2.9-9.9.4-19.6.9-21.5 1-1.9.2-6.1.4-9.2.4-4.6.1-5.8.4-5.8 1.7 0 1.4 1.2 1.5 9.3 1 5-.3 16.4-.8 25.2-1.2 13.7-.5 21.9-1 24.7-1.3 1.7-.2-.4-2.7-2.3-2.7-1.1 0-2.1.1-2.2.2zM146.7 225.6c-.1.1-4.2.5-9.2.8-12.1.9-12.8 1.1-13.3 2.6-.5 1.3 3.7 1.2 23.8-.7 9.3-.8 9.3-.8 9.8-2.2.3-.9-1.2-1.1-5.2-1-3.1.1-5.7.3-5.9.5zM317.6 225.8c-1 1.7 1.2 2.1 24.5 3.8 5.6.4 8.9.2 9.3-.4 1-1.6-.2-1.9-10.4-2.6-5.2-.4-12.5-.9-16.1-1.2-4.1-.4-6.9-.2-7.3.4zM108 232.5c0 .1.5 1.6 1.1 3.4l1.1 3.1h43.1c24.9 0 43.8-.4 44.7-1 1.7-1.1 1.8-1.1-4.5-3.5-4.6-1.7-8.3-1.9-45.2-2.1-22.2-.1-40.3 0-40.3.1zM283.5 234.1c-2.2 1-4.9 2-6 2.3-1.7.5-1.8.7-.5 1.6.9.6 18 1 44.6 1h43.1l1.1-2.5c.7-1.4 1.2-2.9 1.2-3.4 0-.4-17.9-.8-39.7-.8-36 0-40.2.2-43.8 1.8zM231.3 235.8c-4.2.4-7.5 4.4-6.4 7.5.4 1.2 2.9 3.4 5.4 4.8 2.6 1.4 5.3 3.3 6 4.3 1.2 1.6 1.4 1.5 3.6-.8 1.3-1.4 3.9-3 5.6-3.6 5.8-1.9 6.9-9.8 1.7-11.4-2.4-.8-11.8-1.3-15.9-.8zM204.2 238.2c-1.1 1.2-4.2 2.6-6.8 3.3l-4.8 1.2 3.4 1.1c8.1 2.4 8.3 2.4 13.5-2.3 4.4-4.1 4.6-4.5 2.4-4.6-1.3 0-3.1-.2-4-.4-.9-.1-2.6.6-3.7 1.7zM220.4 236.9c-3.2.8-11.4 6.7-11.4 8.3 0 1.8 9.4 4 13 3.1 1.5-.4 1.9-1.1 1.4-2.5-1.1-3.5-1.1-5.2-.3-7.6.5-1.2.7-2.2.6-2.1-.1.1-1.6.4-3.3.8z"/><path d="M252.4 239.1c.7 2 .6 3.5-.2 5.5-.7 1.4-1 2.9-.7 3.2 1.3 1.4 10.6.4 13.2-1.3 2.6-1.7 2.6-1.9.9-2.9-1.1-.6-3.3-2.3-5-3.7-1.7-1.4-4.5-2.8-6.2-3.1-3-.4-3-.3-2 2.3zM264 237l-3.5.5 3.7 2.5c2.1 1.4 4.1 3.3 4.4 4.3.3 1.1 1.2 1.6 2.2 1.3.9-.2 3.6-.8 5.9-1.1 4.5-.7 6.9-2.5 3.4-2.5-2.3 0-9.1-3-9.1-4.1 0-1.1-3.2-1.5-7-.9zM113 245.5c0 .4.7 1.9 1.5 3.4l1.4 2.8h48.6c44.6 0 56.1-.6 43.8-2.2-2.7-.3-5.9-.8-7.3-1-1.4-.1-4.5-1-7-1.9-3.8-1.3-10.4-1.6-42.7-1.6-21.1 0-38.3.2-38.3.5zM281.2 246.6c-1.8.8-5.9 1.7-9 2.1-3.1.3-7.3 1.1-9.2 1.8-2.9 1 5.4 1.2 45 1.3 26.7 0 49.2-.2 50.1-.4 1.3-.4 3.9-4.3 3.9-5.9 0-.3-17.4-.5-38.7-.4-31.4 0-39.4.3-42.1 1.5zM120 258.6c0 .7.8 2.2 1.8 3.5l1.9 2.2 67.6.1c49.2.1 67.7-.2 67.7-1 0-.6.8-2.2 1.9-3.5l1.9-2.4h-71.4c-53 0-71.4.3-71.4 1.1zM302.6 257.9c.2.3 1.5.6 2.7.8 4 .5 11.1 2.6 14.1 4.1 2.2 1.1 6.8 1.5 17.4 1.5 14.1.1 14.4 0 16.3-2.4 1-1.3 1.9-2.9 1.9-3.4 0-.7-9.4-1-26.4-1-14.6 0-26.3.2-26 .4z"/><path d="M277.8 258.5c-.2.2-2.8.4-5.8.6-6.6.3-10.2 1.7-9.8 3.8.4 2.1 4.3 3.9 9.6 4.4 5.1.5 6 1.2 3.4 2.6-1.1.6-2.1.9-2.3.6-.2-.2-4-.7-8.4-1-10-.9-15.5.9-15.5 4.9 0 3.1 4.8 7 11 8.7 2.5.6 9.5 1.3 15.5 1.4 22.7.5 49.5-7.1 49.5-14 0-1.9-1.1-2.9-5.2-4.8-6.1-2.9-17.7-5.5-28.1-6.3-3.9-.3-8.6-.7-10.4-.8-1.8-.2-3.3-.2-3.5-.1zM128 270.7c0 .5 1.2 2 2.5 3.5l2.4 2.8h22.4c12.3 0 24.9-.5 27.8-1.1 5.9-1.1 25.9-1.4 29.9-.3 1.4.4 9.4.9 17.8 1.1 12.4.4 15.2.3 15.2-.8 0-.8.3-2.4.6-3.7l.6-2.2h-59.6c-32.8 0-59.6.3-59.6.7zM328 271.2c0 .6-1 2.2-2.2 3.5l-2.1 2.3h9.2c8.8 0 9.3-.1 11.6-2.8 1.3-1.5 2.5-3 2.5-3.5 0-.4-4.3-.7-9.5-.7-6.7 0-9.5.4-9.5 1.2zM186 277.8c-6.6 1-13.7 3.7-16.2 6.3-3.4 3.3-3.4 3.9-.7 7.3 3 3.8 7.4 5.5 18.9 7.4 5.5 1 20.6.8 23.8-.2 3.3-1.1 2.7-3.9-1.3-6-5.2-2.8-3.3-3.6 3.6-1.5 3.3 1 7.5 1.9 9.3 1.9 6.4 0 9.9-5.6 5.8-9.3-2-1.8-8.1-4.2-13.4-5.2-3.8-.8-26.1-1.3-29.8-.7zM139.8 284.5c4.2 4.8 5.1 5.1 15 5 9.3-.1 9.7-.2 10.3-2.5.4-1.4.7-3 .8-3.5.1-.6-5.1-1-13.8-1-13.8 0-13.9 0-12.3 2z"/><path d="M233.6 285.5c.3 1.6.8 3.2.9 3.5.2.3 21.7.5 47.9.5h47.5l3.6-3.2c1.9-1.7 3.2-3.3 2.8-3.5-2.5-1.3-27 .1-36.8 2.1-16.4 3.3-35.2 3-43.5-.6-2.2-1-7-1.6-13.3-1.7l-9.8-.2.7 3.1zM153 295.7c0 .5 1.6 2 3.4 3.5 3.4 2.8 3.7 2.8 17.3 2.7l13.8-.1-5.7-1.4c-3.2-.7-7.6-2.3-9.8-3.4-2.9-1.5-5.9-2-11.5-2-4.1 0-7.5.3-7.5.7zM217 296.4c0 1.7-2.9 4.3-5.5 4.9-1.1.2 21.7.5 50.6.6l52.6.1 4.1-3c2.3-1.7 4.2-3.2 4.2-3.5 0-.2-23.8-.4-53-.4-42.7 0-53 .3-53 1.3zM171.4 308.2c-.3.4 2.4 2 5.8 3.6l6.3 3 54.5-.2 54.5-.1 5.8-2.9c3.2-1.6 5.6-3.1 5.3-3.3-.8-.8-131.7-.9-132.2-.1zM202.3 321.1c.7.4 3.7 1.2 6.7 1.8 3 .6 6.9 1.3 8.5 1.7 7.6 1.5 32.1 1.2 42.8-.7 6-1 11.4-2.2 12.2-2.6.8-.5-15-.8-35-.8s-35.8.3-35.2.6z"/><path d="M406.5 294.6c-6.4 3.3-10 9.3-11.9 19.5-.6 3.4-1.1 3.8-8.4 6.7-7 2.7-19.8 6.1-41.7 11-10.1 2.2-11.4 4-9.9 13l1 6.1-6.1 3.8c-9.6 6.3-23.2 11.6-37.5 14.8-14.9 3.3-17.9 3.8-34.5 5.1-40.6 3.4-85-4-109.1-18.1-4.3-2.5-4.6-2.9-3.9-5.9 1.5-7.1 1.6-8.2 1-11.2-.6-3.3-3-4.9-9-6-19-3.3-46.5-11.4-49.7-14.6-1-1-1.8-3.2-1.8-4.8 0-5.4-5-14-10.1-17.3-5.4-3.5-17.1-2.8-18.4 1.1-.3 1-.4 4.2-.3 7.2.2 4.2-.5 7.3-3 13.2-1.8 4.2-3.2 9.1-3.2 10.9 0 3.8 3.1 8.8 7.2 11.5 1.5 1 2.8 2.3 2.8 2.8s-1.9 5-4.1 9.9c-4.2 9.1-5.6 17.3-3.9 23.7.9 3.6 3.5 3.7 5 .1.6-1.6 2.9-4.8 5-7.1 3.3-3.6 4.1-4 5.9-3.1 1.1.6 2.5 2.7 3.2 4.6 1.9 5.3 3.7 4.4 4.4-2.3 1.1-9.1 3.6-16.4 5.4-15.6.9.3 6.1 1.9 11.6 3.5 15.5 4.5 25.6 8 25.3 8.7-3.2 6.3-3.2 6.3-1.7 9 3.3 5.9 25.2 17.2 44.4 23 26 7.7 47.3 10.7 77 10.7 24 0 39.5-1.5 61-5.9 19.1-3.9 44.5-14.4 58.1-24.2 5.3-3.7 6.4-5 6.4-7.4 0-1.6-.4-3.2-1-3.5-2.3-1.4-.6-3.5 4.4-5.4 5-1.8 32.7-10.1 34-10.1.9 0 3.6 10.3 4 15.4.6 7.1 2.1 7.9 4.5 2.3 1.4-3.2 2.6-4.7 3.9-4.7 2.4 0 6.6 4.2 9.9 9.8 2.9 4.8 4.5 5 5.4.5 1.5-7.5.3-14.6-4.1-24.1l-4.4-9.3 4.7-4.3c6.8-6.4 7.2-10.8 2-22.2-2-4.4-2.5-7.1-2.4-12.2.2-8.6-1.2-10.2-8.8-10.2-3.1 0-6.9.7-8.6 1.6zm8.7 1.7c1.6 2.6-4.2 10-12.3 15.7-3.3 2.3-5.9 3.7-5.9 3.2 0-3.1 3.6-12.2 5.8-14.6 4.1-4.4 10.8-6.7 12.4-4.3zm-341.6 2.6c1.7 1 4 3.4 5.2 5.2 2.2 3.6 4.7 11.8 3.8 12.6-.7.7-6.3-3.3-11.4-8.1-4.7-4.4-7.6-9.1-6.7-10.6 1-1.6 5.8-1.1 9.1.9zM412 326.6c3.2 7.1 3.5 8.4 2.1 8.4-.5 0-1.4-1.4-2-3-1.1-3.3-1.8-3.5-5.6-1.8-1.9.8-2.5 1.7-2.1 3 1.9 6 1.9 6.4.4 4.8-1.9-1.9-6.3-12.9-5.4-13.7.3-.3 1.1.8 1.8 2.4l1.3 3.1 3.7-1.5c3.4-1.3 3.6-1.7 2.7-3.9-.5-1.4-.9-3-.9-3.5 0-2.2 1.2-.5 4 5.7zm-341.5 1.5l-.3 7 5.3-4.5 5.3-4.6-2.1 7.8c-2.2 8.4-2.4 8.8-3.3 8-.3-.3 0-2.5.6-4.8s.9-4.4.7-4.7c-.3-.2-1.9 1-3.8 2.6-1.8 1.7-3.6 2.8-4 2.6-.4-.3-.5-2.8-.3-5.7l.3-5.1-3 4.1c-1.7 2.3-3.5 4.2-4 4.2-.6 0-.6-.6-.2-1.3 1-1.7 8.8-12.7 8.9-12.7.1 0 0 3.2-.1 7.1zm325.5-1.2c0 .5-.7 1.1-1.5 1.4-1.2.5-1 1.6 1.1 6.8 1.4 3.3 2.3 6.6 2.1 7.3-.3.6-1.4-1.2-2.6-3.9-3.1-7.3-3.6-8-6.2-8.4-2.2-.3-2-.5 1.6-2.2 4.7-2.1 5.5-2.2 5.5-1zm-304.1 8.8c.1 2.7.4 6.5.5 8.6.2 2.4-.1 3.6-.8 3.4-.6-.2-1-1.1-.8-2 .3-2.1-5.2-5-7.8-4.2-1.1.4-2 1.1-2 1.6 0 .6-.5.7-1.1.3-1-.6 9.6-12.4 11.1-12.4.4 0 .8 2.1.9 4.7zm300.2 6.5c2.3 2.1 1.1 3.3-1.2 1.2-2.7-2.4-8.9-.2-8.9 3.2 0 1.3-.5 2.4-1 2.4-.8 0-.9-13.6-.1-17 .1-.2 2.2 1.6 4.7 4 2.6 2.5 5.5 5.2 6.5 6.2zm-285.1-5c0 .4-1 .7-2.1.5-1.8-.2-2.5.9-4.4 5.8-1.2 3.2-2.8 6.1-3.4 6.3-.7.2-.1-2.5 1.4-6.4 2.2-5.9 2.4-6.9 1-7.6-3.2-1.9-1.3-2.5 3-.9 2.5.9 4.5 1.9 4.5 2.3zm266.4 5.9c2 3.3 3.6 6.5 3.6 7.1 0 1.8-2.7-1-4-4.2-1.8-4.4-3-3.6-3 2 0 2.7-.3 5-.6 5-.4 0-2-1.6-3.7-3.5-1.6-1.9-3.3-3.5-3.7-3.5-.4 0-.4 1.9.1 4.2 1.1 5.6 1.1 5.8 0 5.8-1 0-1.7-2.8-2.7-10.5l-.6-5 4.6 4.5c2.5 2.4 4.6 4 4.7 3.5.1-.6.2-2.8.4-5 .4-5.9.5-6.5.9-6.5.2 0 2 2.7 4 6.1zm-257.6 5.7c.5 4 .5 7.5 0 7.8-.4.3-.9 0-.9-.5-.1-.6-.2-1.7-.3-2.4 0-.6-1.7-2-3.6-2.9-3.1-1.6-3.5-1.6-5.2-.1-3.5 3.2-2.7.6 1.2-3.7 2.2-2.4 4.3-4.1 4.6-3.7.4.4-.1 1.6-1.1 2.7-1.7 1.9-1.7 2 .6 2.9 2.1.7 2.4.5 2.7-1.6.2-1.3-.2-3.1-.9-3.9-.9-1.1-.8-1.8.2-3.1 1.6-1.9 1.5-2.3 2.7 8.5zm224.7-5.8c.7 1.2-1.9 5.3-2.8 4.3-.4-.3-.7-1.7-.7-3 0-2.3 2.3-3.2 3.5-1.3zm85.2 24c.4 7.4.3 7.5-1.4 5-3.5-4.9-9.1-10-11.1-10-1.2 0-2.9 1.1-3.9 2.4l-1.8 2.4-2.2-8.2c-1.2-4.4-1.8-8.2-1.4-8.4.5-.1 3.7-1.8 7.2-3.6l6.4-3.3 3.9 8.1c3.2 6.7 3.9 9.4 4.3 15.6zm-282.8-21.7c-.1.7-.4 2.2-.7 3.5l-.7 2.3-2.3-2.1c-1.6-1.5-2-2.5-1.3-3.4 1.3-1.6 5.1-1.8 5-.3zm-72.7 3.5l6.6 3.4-1.3 4.6c-.8 2.6-1.6 6-1.9 7.6-.7 3.8-1.2 4.2-2.6 1.7-2.3-4.4-8.3-1.7-14.2 6.3l-3 4.1.4-7.5c.3-6.2 1-9 4.2-15.8 2.2-4.5 4.2-8.1 4.5-8 .3.2 3.6 1.8 7.3 3.6zm273.3 22.7c1 2.2 2 4.3 2.2 4.7.2.5 0 .8-.5.8-1.3 0-8.3-13.5-7.5-14.4.7-.7 3.1 3 5.8 8.9zm-8.7-2.6c-.7 3.8-.5 5.9.6 8.5.9 2.2 1.1 3.6.5 3.6-.6 0-1.5-1.2-2.1-2.8-.6-1.5-3.1-4.2-5.5-6-5.2-3.9-5.1-5.5.1-2.2 3.8 2.3 3.8 2.3 5-3.3 1.1-4.8 2.4-2.9 1.4 2.2zm-192.5 5.4c.3 7 .2 8.5-.9 7.6-.7-.6-1-1.7-.7-2.4.3-.9-.8-2.1-3.2-3.2-3-1.4-3.9-1.5-5.6-.4-3.7 2.2-3.2.3.6-3.1 7.5-6.5 8.9-7.7 9.2-7.5.1.2.4 4.2.6 9zm10.9 1.5c.2 3.4.6 6.2.9 6.2.4 0 2.6-2.1 4.9-4.8l4.2-4.7-.7 6c-.8 7.7-1.5 10.5-2.5 10.5-.8 0-.6-3.4.6-9 .4-2.2 0-2-3.5 1.7-2.1 2.3-4.1 3.9-4.5 3.6-.3-.4-.6-2.6-.6-5s-.4-4.3-1-4.3c-.5 0-1 .6-1 1.2 0 1.8-4.9 7.6-5 6 0-1.2 7.2-14.3 7.7-13.8.1.1.3 3 .5 6.4zm169.4 1.9c5.7 6.2 6.9 8.3 3.1 5.8-3.2-2.1-8.3-.4-9.1 3.1-.9 3.3-2.7 3-2-.4.5-2.6 1.2-9 1.3-12.5.1-.9.4-1.7.7-1.7.3 0 3 2.6 6 5.7zm-148.8-1.1c3.4 2.3 2.3 7.2-1.9 8.6-.8.3-.7 1.3.5 3.5 1.9 3.7 2 4.7.5 3.7-.6-.3-1.9-2.5-2.8-4.8l-1.8-4.1-1.2 3.8c-2.3 6.8-2.8 2.9-.7-4.8 2.2-8 3.3-8.8 7.4-5.9zM312 389.2c0 .5-.4.8-.9.8s-1.7-2-2.7-4.5c-1.9-5-2.3-5.1-3-.9-1.2 8-1.2 7.9-4.7 3.5-1.8-2.2-3.4-4-3.7-4-.3-.1-.3 2.1-.2 4.9.3 3.2 0 5-.7 5-.6 0-1.2-2.2-1.2-5.3-.1-2.8-.2-6.4-.3-8-.1-1.5-.1-2.7 0-2.7s1.9 2.3 4 5c4.2 5.5 4.8 5.3 5.7-2 .3-2.5.7-5 .7-5.5.2-1 6.9 12.3 7 13.7zm-130-10c-.1 3.3-3.7 15.1-4.3 14.1-.9-1.4 2.3-15.3 3.5-15.3.4 0 .8.6.8 1.2zm11.5 1.9c.5.5.1.9-1.3.9-1.6 0-2.4.9-3.1 3.7-.6 2.1-1.1 4.7-1.1 5.8 0 1.1-.4 2.6-.9 3.4-1.7 2.6-1.9-.5-.5-6.4 1.7-7.5 1.7-7.5 0-7.5-.8 0-1.8-.5-2.2-1.1-.8-1.3 7.5-.2 9.1 1.2zm95.9 7.6c3.1 4.2 4.2 6.3 3.2 6.3-.8 0-1.9-.7-2.4-1.6-1.3-2.4-9.2-1-9.2 1.6 0 1-.4 2.2-1 2.5-.5.3-1 .1-1-.5 0-1.2 2.7-12.3 3.6-14.9.5-1.7.5-1.7 6.8 6.6zm-82.4 9.5c0 .4-.4.8-1 .8-.5 0-1-.9-1-2 0-1.9-.7-2.2-7.1-3.4-.9-.2-2.1.5-2.8 1.5-.6 1.1-1.6 1.9-2.1 1.9-.6 0 1.3-3.5 4.1-7.7l5.2-7.7 2.4 7.9c1.2 4.3 2.3 8.3 2.3 8.7zm65.9-13.3c1.1.7 2.1 2.2 2.2 3.4 0 1.2.2 3 .4 4.1.4 2.3-3.7 6.2-7.3 6.9-4.2.8-3.9 1.3-5.7-12.5-.2-1.9.2-2.8 1.3-3.1 2.4-.7 6.6-.1 9.1 1.2zm-52.2 9.1l2.2 2.5.2-2.8c.1-1.5.3-3.2.4-3.7.1-.6.3-2.2.4-3.6 0-1.4.5-2.3 1-2 .9.6.3 14.6-.6 15.6-.3.3-1.4-.6-2.5-2s-3.5-4.3-5.4-6.5l-3.4-4-.1 3.2c-.1 1.8-.3 4.2-.4 5.3-.1 1.1-.3 2.5-.4 3.1 0 .5-.5.8-1 .5-.8-.5-.5-8.7.5-13.6.6-2.5.6-2.5 3.7 1.5 1.8 2.1 4.2 5.1 5.4 6.5zm38.4-7.3c0 1.6.2 5.2.5 8.2l.5 5.5-2.3-1.9c-1.3-1.1-4.2-3.7-6.6-6l-4.4-4 .4 6.2c.4 6-.5 8.3-1.6 4.5-.7-2.2-1.1-13.1-.5-13.6.3-.3 2.9 1.7 5.9 4.4 2.9 2.8 5.7 5 6.1 5 .4 0 .5-2.5.2-5.5-.4-3.7-.2-5.5.6-5.5.6 0 1.1 1.2 1.2 2.7zM242.3 401c-.3.3-1.2-.5-2-1.8-2.1-3-9.2-3.2-10-.2-.5 2-2.3 2.8-2.3 1.1 0-.6 1.7-4.3 3.7-8.3l3.6-7.3 3.7 8c2.1 4.4 3.5 8.2 3.3 8.5z"/><path d="M86.7 337.4c-1.5 2.3-1.5 2.4.6 3 2.5.6 3.7-.8 3-3.5-.7-2.5-1.7-2.4-3.6.5zM382 339c0 3 1.3 3.7 3.9 2.1 1.6-1 .8-2.6-2-4.1-1.7-1-1.9-.7-1.9 2zM137.2 371c-2.3 1.9-2.3 1.9-.2 3 2.5 1.4 3.7.7 3.5-1.9-.2-3-.7-3.1-3.3-1.1zM317 378.3c0 3.8 1.1 4.6 4 2.7 1.3-.8 1.1-1.4-1.2-3.7l-2.8-2.8v3.8zM169.7 377.7c-.4.3-.7 1.7-.7 3 0 2 .5 2.4 2.2 2.1 2.6-.3 3.7-3.6 1.6-4.9-1.6-1.1-2.3-1.1-3.1-.2zM282.7 387.7c-.7 3.5-.4 3.7 2.8 2.9 2.5-.6 2.5-.7.8-3.1-2.3-3.1-3-3.1-3.6.2zM199.6 389c-.9 1.7-1.4 3-.9 3.1.4 0 1.6.2 2.6.4 1.2.2 1.7-.3 1.7-1.8 0-4.1-1.5-4.9-3.4-1.7zM264.9 385.7c-.2 1.5.2 6.9.7 9.6.5 2.3.9 2.7 2.7 2.1 4.1-1.2 5.9-3.6 5.3-6.9-.4-1.6-1.4-3.6-2.3-4.3-1.8-1.3-6.2-1.7-6.4-.5zM233.5 392l-1.6 3h3c2.9 0 3-.1 2-3-.6-1.7-1.3-3-1.5-3-.2 0-1 1.3-1.9 3zM287 410.9c0 2.5 1.5 4.1 3.7 4.1 2.4 0 9.3 6.1 9.3 8.2 0 .4-7.9.8-17.5.8s-17.5.3-17.5.7c.1 2 3 4.3 5.4 4.3 2.6 0 2.7.2 2.4 4.7-.3 4.1-.6 4.7-2.8 4.8-4.4.4-5-.4-5-6 0-4.7-.4-5.6-3.1-7.9-1.7-1.4-3.7-2.6-4.5-2.6-2.4 0-5.4 2-5.4 3.5 0 1.9-1.6 1.9-2.4 0-.4-1.2-3.3-1.5-17.1-1.5-9.1 0-16.5.3-16.5.7 0 .5.7 1.6 1.4 2.5 1.1 1.5 3 1.8 11.5 1.8 10.9 0 11.8.5 7.9 4.7-1.9 2-2.3 2.1-3.7.9-3-2.7-6.5-2.9-9.4-.6-4.5 3.5-3 10 3.3 15.4 4.4 3.6 5.7 2.2 2-2-3.3-3.8-3.8-7.4-1.4-9.8 1.9-2 2.8-2 4.3-.2.9 1.1 1 2 .1 3.6-.9 1.7-.8 2.2 1.2 2.9 1.9.7 2.5.5 3.3-1.4 1.6-3.5 4.6-6.5 6.7-6.5 3 0 2.3 4.7-1.3 8.2l-3 3.1 2 2 2 2 2-2.4c1.2-1.3 2.6-4.1 3.2-6.1 1.1-3.3.9-4.1-1.5-8.2-1.4-2.4-2.6-4.7-2.6-5 0-.3 1.8-.6 3.9-.6 2.6 0 4.1.5 4.5 1.5.3.9 2.1 2.5 4.1 3.6 4 2.4 4.4 3.5 1.5 4.4-2.7.9-2.5 2.4.7 5.7 3.2 3.3 6.3 3.7 6.3.8 0-1.7.7-2 4-2 4 0 4 0 4 3.7 0 3.1.5 4 2.5 5 2.8 1.3 2.7 1.9 2.7-14.5V429h10.4c9.7 0 10.4.1 10.4 2 0 1.8-.7 2-5.3 2-9.9 0-11.6 6.9-4.1 16.8 3 3.8 5.2 3.3 2.5-.6-4.5-6.4-3.1-11.4 3.3-11.7l3.6-.2v6.1c0 5.2.3 6.3 2.1 7.5 1.5.8 2.4.9 2.8.2.4-.5.6-5.7.5-11.5-.1-10.5-.1-10.6 2.3-10.6 2.6 0 2.7-.3 1.3-3.1-.7-1.2-2.1-1.9-3.9-1.9-1.7 0-2.8-.5-2.8-1.4 0-2.1-5.5-9.3-8.5-11-2.9-1.8-5.8-2.1-5.8-.7zm-27.3 18.7c.3 2.6 0 3.5-.9 3.2-1.5-.5-2.2-4.2-1.4-6.5.9-2.3 1.8-.9 2.3 3.3zM56.2 424.6c-3.1 2.1-2.8 5.8.8 9.2l2.9 2.8-4.5 2.2-4.6 2.3 2.3 1.8c2.2 1.8 2.4 1.8 7.1-1 5.2-3.1 6.5-3.4 8.6-2 .9.6-.6 1.9-5.2 4.7-3.6 2.1-6.6 4.1-6.6 4.4 0 .3.8 1 1.9 1.7 1.5 1 2.8.5 7.7-2.8l5.9-3.9.3 2.9c.3 2.8 4.6 7 5.5 5.3.2-.4.3-5.8.2-12l-.1-11.2h15.4c14 0 15.3.2 15 1.7-.2 1.1-1.4 1.8-3.3 2-7.8.6-11 3.9-9.3 9.9.9 3.7 7 9.4 9.8 9.4 2.6 0 2.6 2.4 0 5-3.6 3.6-7.8 1.7-4.5-2 1.7-1.8 1.6-2-.9-3.1-2-1-2.9-1-3.8-.1-.7.7-2.1 1.2-3.2 1.2-1.3 0-1.6-.3-1-.8 1.8-1.2 2.6-5 1.4-7.2-1.6-3-6.5-2.7-8.6.6-1.6 2.4-1.6 2.7.3 5.2 1.1 1.5 3.7 3.2 5.8 3.7 2 .6 4.1 1.9 4.7 2.9 1.3 2.3 7.2 4.8 9.5 3.9 1-.3 2.8-1.5 4.1-2.7 2.2-1.9 2.4-2 3.3-.3 1.2 2 3.9 2.3 3.9.4 0-.7-.7-2.3-1.6-3.6-1.4-1.9-1.4-2.7-.4-4.6 1.1-2 1-2.8-.4-5-.9-1.4-2-2.5-2.5-2.5-2.5 0-4.1 1.5-4.1 3.6 0 3.2-4.2 3.3-6.4.2-3.7-5.3-.3-9.8 6.9-9.3 5.1.3 6.5-1 6-5.8-.3-2.6-.1-2.7 3.9-2.7h4.2v10.4c-.1 10.3-.1 10.4 2.6 11.9l2.8 1.6-.1-10.7v-12c.1-.9 3.2-1.2 11.9-1.2h11.8l-.2 2.7c-.4 4.8-.4 4.8-1.2 3.7-1.7-2.6-7.2-4.5-10.5-3.6-6.9 1.8-7 10-.2 14.2 3.8 2.4 6 2.5 9.7.6 2.3-1.2 2.6-1.2 2.1 0-.6 1.6 1.1 4 3.7 5.4 1.5.8 1.6-.3 1.6-10.8v-11.7l4.5-.3 4.5-.3-.2 9.8c-.1 7.5.3 10.2 1.4 11.5 3.2 3.8 3.9 2.2 3.8-8.8-.1-5.8.2-11 .5-11.5.3-.6 4.8-.8 9.9-.7l9.4.3v3c0 3-.1 3-5.9 3.3-6.5.3-8.7 1.5-7.8 4 1.6 4.6 6.3 7 6.3 3.2 0-1.6.7-2 3.5-2 3.7 0 3.8.3 3.7 5.7-.1 2.3.5 3.5 2.3 4.7 2.9 1.9 2.7 2.7 2.9-11.4.1-10.1.2-10.5 2.4-10.8 2.5-.4 2.6-.6 1.2-3.3-1-1.8-2.8-1.9-65.6-1.9H68.9l2 2.9c1.4 1.9 2.1 4.5 2.1 7.5 0 5-.1 5.2-2.9 3.4-1.5-.9-1.8-1.9-1.4-4.9.5-3.4.2-4.2-2.7-6.9-3.6-3.3-6.5-3.8-9.8-1.4zm8.8 5.9c0 1.2-.7 2.9-1.6 3.6-1.4 1.1-1.8 1-3-.6-1.8-2.4-1.8-3 .1-4.9 2-2 4.5-1 4.5 1.9zm84.5 6.9c1.6 1.1 1.7 1.7.7 2.9-3.4 4.1-12.2 4.6-12.2.7 0-4.1 7.6-6.5 11.5-3.6zM92 448c0 2.6-1.4 3.2-3.6 1.5-1.9-1.5-1.9-1.5 0-3 2.2-1.7 3.6-1.1 3.6 1.5zM325 424.6c0 .3.5 1.4 1 2.5 1 1.7 2.2 1.9 11 1.9 9.4 0 10 .1 10 2s-.6 2.1-7.4 1.9c-9.1-.2-10.9.7-6.4 3.1 4.4 2.3 6 6.6 3.3 8.6-1.2.9-2.1 1.1-2.3.4-.5-1.3-3.9-1.3-4.7 0-1.2 1.9.5 4.8 3.1 5.4 1.8.5 3.1 1.9 4.1 4.6 1.3 3.2 1.9 3.8 2.9 2.9 1.1-.9 1-1.7-.7-4.1-1.2-1.6-2-3-1.8-3.1 3.6-1.9 4.5-2.8 4.7-5.1.2-1.5-.4-3.8-1.2-5.1-.9-1.3-1.6-2.6-1.6-2.8 0-.3 4.7-.2 7.2.2.4 0 .8 2.9 1 6.2.2 5.1.7 6.4 2.6 7.7l2.2 1.4V429h9v10.4c0 10 .1 10.4 2.5 12l2.5 1.6v-24h19.9l-.2 3.2-.2 3.3-6.5.5c-5.8.4-6.5.7-6.8 2.7-.2 1.4.7 3.3 2.4 5l2.8 2.8.6-2.5c.5-2 1.3-2.6 4.2-2.8 3.4-.3 3.7-.1 3.6 2.5-.1 5.9.3 7 2.7 8.1l2.5 1.2v-24h9v4.5c0 3.1-.5 4.7-1.5 5.1-2.1.8-1.9 1.8 1.1 5.3 3 3.6 5 3.9 5.9 1.2.5-1.5 1.5-2 4.5-1.9 3.8 0 4 .2 4 3.3 0 2.4.7 3.7 2.5 4.9l2.5 1.6v-24h2.5c2.8 0 3-.7 1.1-3.3-1.2-1.6-4.8-1.7-49.5-1.7-26.4 0-48.1.3-48.1.6zm89 9.2v4.8l-3.7-.2c-2.1-.1-4-.2-4.3-.3-.3-.1-.5-2.1-.6-4.6V429h8.6v4.8z"/><path d="M188.5 455c-1 1.7.5 3 3.3 3 1.8 0 4.1 1.5 7.3 4.6 4.7 4.7 7.5 5 3.5.4-6.4-7.3-12.4-10.7-14.1-8zM412.5 455c-1 1.6.4 3 3 3 1.3 0 4.4 1.9 7.3 4.5 7.2 6.4 7.4 3.9.3-2.9-5.6-5.3-9.2-6.9-10.6-4.6z"/></svg>